<?xml version="1.0" standalone="no"?>
<!DOCTYPE svg PUBLIC "-//W3C//DTD SVG 20010904//EN"
 "http://www.w3.org/TR/2001/REC-SVG-20010904/DTD/svg10.dtd">
<svg version="1.0" xmlns="http://www.w3.org/2000/svg"
 width="299.000000pt" height="83.000000pt" viewBox="0 0 299.000000 83.000000"
 preserveAspectRatio="xMidYMid meet">

<g transform="translate(0.000000,83.000000) scale(0.100000,-0.100000)"
fill="#000000" stroke="none">
<path d="M273 748 c-5 -7 -22 -42 -37 -78 -16 -36 -36 -83 -46 -105 -10 -22
-32 -74 -50 -115 -18 -41 -40 -93 -50 -115 -10 -22 -25 -57 -33 -77 l-16 -38
49 0 c49 0 50 1 70 43 16 35 82 190 148 350 8 20 18 37 21 37 3 0 27 -52 53
-115 l47 -115 -70 0 -69 0 -15 -36 c-8 -20 -15 -40 -15 -45 0 -5 46 -9 103 -9
l102 0 20 -52 21 -53 52 -3 c29 -2 52 -1 52 1 0 5 -48 123 -70 172 -10 22 -37
85 -60 140 -23 55 -53 124 -66 153 -13 29 -24 57 -24 62 0 15 -106 12 -117 -2z"/>
<path d="M703 699 c-28 -8 -32 -14 -35 -47 -3 -34 -6 -37 -36 -40 -32 -3 -33
-5 -30 -40 3 -34 6 -37 36 -40 l32 -3 0 -120 c0 -96 3 -125 17 -146 30 -46
113 -67 159 -40 18 10 19 17 12 46 -7 27 -13 32 -30 28 -11 -3 -31 -2 -44 3
-23 9 -24 13 -24 120 l0 110 45 0 45 0 0 40 0 40 -45 0 -45 0 0 50 c0 54 -2
55 -57 39z"/>
<path d="M1025 607 c-56 -22 -74 -37 -102 -84 -50 -86 -29 -220 44 -271 86
-59 203 -55 273 11 38 36 38 44 -2 61 -30 12 -35 12 -56 -8 -19 -16 -37 -21
-84 -21 -53 0 -62 3 -84 28 -46 54 -39 57 126 57 l150 0 0 45 c0 133 -141 230
-265 182z m124 -81 c27 -14 55 -59 44 -70 -11 -11 -203 -7 -203 5 0 59 95 98
159 65z"/>
<path d="M1535 609 c-17 -4 -41 -18 -53 -29 l-22 -21 0 26 c0 23 -3 25 -45 25
l-45 0 0 -196 0 -195 43 3 42 3 0 45 c2 184 4 200 31 225 19 17 38 25 64 25
34 0 38 3 44 31 14 71 7 78 -59 58z"/>
<path d="M1753 609 c-46 -13 -100 -71 -114 -121 -15 -57 -6 -140 21 -183 33
-54 84 -80 156 -80 52 0 66 4 99 29 l38 29 -7 -48 c-13 -81 -40 -105 -121
-105 -35 0 -49 6 -74 31 -29 29 -33 30 -66 19 -19 -6 -37 -15 -40 -20 -3 -5
12 -27 33 -48 94 -94 271 -78 332 29 24 42 25 51 28 257 l4 212 -46 0 c-43 0
-46 -2 -46 -27 l0 -26 -22 20 c-44 39 -109 51 -175 32z m138 -92 c97 -65 56
-217 -58 -217 -88 0 -141 97 -98 180 31 59 99 75 156 37z"/>
<path d="M2245 608 c-168 -59 -181 -306 -21 -379 90 -41 218 -9 257 63 8 14 3
20 -23 31 -30 12 -36 12 -61 -7 -42 -31 -127 -29 -161 3 -14 14 -26 33 -26 42
0 17 13 19 148 21 l147 3 -1 40 c-1 59 -11 90 -41 126 -50 59 -142 83 -218 57z
m118 -80 c28 -15 46 -38 47 -60 0 -16 -11 -18 -100 -18 -113 0 -123 8 -71 61
32 32 84 39 124 17z"/>
<path d="M2657 606 c-52 -19 -74 -41 -81 -81 -15 -76 33 -124 141 -144 75 -15
103 -28 103 -50 0 -11 -10 -25 -21 -32 -33 -17 -121 -6 -157 20 -30 21 -33 21
-57 5 -32 -21 -31 -26 4 -61 52 -53 155 -67 241 -35 34 13 49 26 64 55 38 79
-6 146 -111 167 -87 17 -105 23 -116 42 -8 12 -7 21 2 32 24 28 130 17 152
-16 3 -5 22 -1 43 7 36 15 37 17 23 38 -36 55 -153 82 -230 53z"/>
</g>
</svg>
