<?xml version="1.0" standalone="no"?>
<!DOCTYPE svg PUBLIC "-//W3C//DTD SVG 20010904//EN"
 "http://www.w3.org/TR/2001/REC-SVG-20010904/DTD/svg10.dtd">
<svg version="1.0" xmlns="http://www.w3.org/2000/svg"
 width="384.000000pt" height="384.000000pt" viewBox="0 0 384.000000 384.000000"
 preserveAspectRatio="xMidYMid meet">

<g transform="translate(0.000000,384.000000) scale(0.100000,-0.100000)"
fill="#000000" stroke="none">
<path d="M1774 3238 c-21 -33 -60 -112 -140 -280 -142 -301 -183 -387 -244
-513 -32 -66 -90 -190 -130 -275 -40 -85 -92 -195 -115 -245 -128 -265 -356
-748 -412 -869 -35 -77 -77 -163 -93 -191 -17 -29 -30 -55 -30 -59 0 -3 117
-6 261 -6 l260 0 30 68 c17 37 50 108 74 157 53 112 346 729 385 810 40 86
195 414 244 517 22 48 44 86 49 85 7 -2 48 -88 204 -422 110 -234 113 -242
113 -246 0 -3 -46 -3 -102 -1 -57 1 -107 -1 -113 -5 -15 -12 -49 -78 -89 -176
-20 -48 -59 -133 -86 -187 -28 -55 -50 -102 -50 -105 0 -2 154 -6 341 -7 l342
-3 37 -85 c20 -47 63 -139 94 -205 32 -66 65 -137 73 -157 8 -21 20 -38 27
-38 178 -4 506 -3 506 2 0 3 -18 44 -39 90 -22 45 -71 151 -109 233 -128 276
-144 308 -328 693 -101 211 -184 385 -184 387 0 2 -36 79 -81 172 -44 92 -97
202 -116 243 -206 432 -286 597 -300 612 -14 16 -34 18 -144 18 -91 0 -130 -4
-135 -12z"/>
</g>
</svg>
